<svg xmlns="http://www.w3.org/2000/svg" width="25" height="25" viewBox="0 0 25 25"><defs><style>.a{fill:#00839b;}.b{fill:#fff;}</style></defs><g transform="translate(-281 -689)"><circle class="a" cx="12.5" cy="12.5" r="12.5" transform="translate(281 689)"/><path class="b" d="M8.921,1A2.642,2.642,0,0,0,6.289,3.632H4.974a.658.658,0,0,0-.651.565l-1.316,9.21a.658.658,0,0,0,.651.75H14.184a.658.658,0,0,0,.651-.75L13.52,4.2a.658.658,0,0,0-.651-.565H11.553A2.642,2.642,0,0,0,8.921,1Zm0,1.316a1.306,1.306,0,0,1,1.316,1.316H7.605A1.306,1.306,0,0,1,8.921,2.316ZM5.544,4.947H12.3l1.128,7.895H4.416Z" transform="translate(284.579 693.263)"/></g></svg>