<svg xmlns="http://www.w3.org/2000/svg" width="25" height="25" viewBox="0 0 25 25"><defs><style>.a{fill:#00839b;}.b{fill:#fff;}</style></defs><g transform="translate(-1134 -689)"><circle class="a" cx="12.5" cy="12.5" r="12.5" transform="translate(1134 689)"/><path class="b" d="M7.895,4a2.3,2.3,0,1,0,2.3,2.3A2.3,2.3,0,0,0,7.895,4Zm0,1.316a.987.987,0,1,1-.987.987A.988.988,0,0,1,7.895,5.316Zm-4.934.658A1.645,1.645,0,1,0,4.605,7.618,1.644,1.644,0,0,0,2.961,5.974Zm9.868,0a1.645,1.645,0,1,0,1.645,1.645A1.644,1.644,0,0,0,12.829,5.974ZM2.961,7.107a.511.511,0,1,1-.511.511A.512.512,0,0,1,2.961,7.107Zm9.868,0a.511.511,0,1,1-.511.511A.512.512,0,0,1,12.829,7.107ZM7.895,9.921a8,8,0,0,0-3.582.92,3.842,3.842,0,0,0-1.352-.262C1.489,10.579,0,11.5,0,12.508v2.019H15.789V12.508c0-1.009-1.489-1.929-2.961-1.929a3.842,3.842,0,0,0-1.352.262A8,8,0,0,0,7.895,9.921Zm0,1.316a5.36,5.36,0,0,1,3.289,1.031v.943H4.605v-.943A5.36,5.36,0,0,1,7.895,11.237Zm-4.934.658a2.3,2.3,0,0,1,.367.041,1.126,1.126,0,0,0-.039.288v.987H1.316v-.651A2.183,2.183,0,0,1,2.961,11.895Zm9.868,0a2.183,2.183,0,0,1,1.645.664v.651H12.5v-.987a1.126,1.126,0,0,0-.039-.288A2.3,2.3,0,0,1,12.829,11.895Z" transform="translate(1138.605 691.579)"/></g></svg>