<svg xmlns="http://www.w3.org/2000/svg" width="25" height="25" viewBox="0 0 25 25"><defs><style>.a{fill:#00839b;}.b{fill:#fff;}</style></defs><g transform="translate(-757 -689)"><circle class="a" cx="12.5" cy="12.5" r="12.5" transform="translate(757 689)"/><path class="b" d="M8.5,1.883,1.764,5.249l1.177.589L5.053,6.894,1.764,8.539l3.289,1.645L1.764,11.828,8.5,15.195l6.734-3.367-3.289-1.645,3.289-1.645L11.943,6.894l3.289-1.645Zm0,1.47,3.792,1.9L8.5,7.146l-3.792-1.9ZM6.524,7.629,8.5,8.616l1.974-.987,1.818.91L8.5,10.435l-3.792-1.9Zm0,3.289,1.974.987,1.974-.987,1.818.91L8.5,13.725l-3.792-1.9Z" transform="translate(761.157 693.038)"/></g></svg>