<svg xmlns="http://www.w3.org/2000/svg" width="25" height="25" viewBox="0 0 25 25"><defs><style>.a{fill:#00839b;}.b{fill:#fff;}</style></defs><g transform="translate(-757 -916)"><circle class="a" cx="12.5" cy="12.5" r="12.5" transform="translate(757 916)"/><path class="b" d="M10.251,2.652,9.119,3.663,7.637,3.334,7.162,4.775l-1.448.456.309,1.486L5,7.837,6.009,8.968,5.68,10.451l.632.209-1.98,2.806L7,14.1l1.5,2.3,1.754-2.485,1.753,2.486,1.5-2.3,2.672-.636L14.2,10.673l.515-.163L14.41,9.025l1.025-1.119L14.425,6.774l.329-1.482-1.441-.475-.456-1.448-1.486.309Zm-.009,1.359.827.758.253-.053.845-.175L12.5,5.612l1.067.352-.243,1.1.748.837-.758.827.229,1.1-1.071.337-.352,1.067-1.1-.243-.837.748-.827-.758-1.1.229L7.928,10.13,6.862,9.778l.243-1.1-.748-.837.758-.827-.229-1.1,1.071-.337L8.31,4.516l1.1.243ZM11.877,6,9.712,8.167,8.556,7.01l-.713.713,1.87,1.87,2.878-2.878Zm1.363,5.057,1.25,1.771-1.615.385-.9,1.393-1.344-1.9-.066.047.752-.672,1.482.329Zm-6.047.1.383,1.216,1.486-.309.768.7-1.3,1.839-.9-1.392L6.014,12.83Z" transform="translate(759.247 919.269)"/></g></svg>