<svg xmlns="http://www.w3.org/2000/svg" width="25" height="25" viewBox="0 0 25 25"><defs><style>.a{fill:#00839b;}.b{fill:#fff;}</style></defs><g transform="translate(-1134 -916)"><circle class="a" cx="12.5" cy="12.5" r="12.5" transform="translate(1134 916)"/><path class="b" d="M10.847,3a4.176,4.176,0,0,0-4.14,3.707,4.159,4.159,0,1,0,4.587,4.587A4.159,4.159,0,0,0,10.847,3Zm0,.923a3.231,3.231,0,0,1,.433,6.433,4.149,4.149,0,0,0-.375-1.3l-.707.707A3.235,3.235,0,1,1,8.236,7.8L8.943,7.1a4.149,4.149,0,0,0-1.3-.375A3.225,3.225,0,0,1,10.847,3.923ZM9.462,5.77v.923h1.183L6.822,10.515l.664.664,3.822-3.822V8.539h.923V5.77Z" transform="translate(1137.579 919.42)"/></g></svg>