<svg xmlns="http://www.w3.org/2000/svg" width="25" height="25" viewBox="0 0 25 25"><defs><style>.a{fill:#00839b;}.b{fill:#fff;}</style></defs><g transform="translate(-390 -916)"><circle class="a" cx="12.5" cy="12.5" r="12.5" transform="translate(390 916)"/><path class="b" d="M8.921,3a2.632,2.632,0,1,0,2.632,2.632A2.642,2.642,0,0,0,8.921,3Zm0,1.316A1.316,1.316,0,1,1,7.605,5.632,1.306,1.306,0,0,1,8.921,4.316Zm1.316,4.605a1.326,1.326,0,0,0-1.316,1.316,10.491,10.491,0,0,0-3.652.721,5.49,5.49,0,0,0-1.5.838A1.856,1.856,0,0,0,3,13.2v1.645H8.921V15.5a1.326,1.326,0,0,0,1.316,1.316H15.5A1.326,1.326,0,0,0,16.816,15.5V10.237A1.326,1.326,0,0,0,15.5,8.921Zm0,1.316H15.5V15.5H10.237ZM8.921,11.553v1.974H4.316V13.2c0-.043.044-.184.293-.391a4.419,4.419,0,0,1,1.142-.626A9.534,9.534,0,0,1,8.921,11.553Zm2.632,0v1.316h2.632V11.553Z" transform="translate(392.921 918.263)"/></g></svg>